<svg width="27" height="23" viewBox="0 0 27 23" fill="none" xmlns="http://www.w3.org/2000/svg">
<path fill-rule="evenodd" clip-rule="evenodd" d="M15.7627 16.7167C16.0624 18.6188 16.3625 20.5241 16.676 22.489C17.1128 22.0966 17.5699 21.7273 18.0452 21.3826C18.3566 21.1737 18.6123 20.8918 18.7898 20.5615C18.9674 20.2312 19.0615 19.8625 19.064 19.4875C19.2064 17.6363 19.3652 15.785 19.524 13.9338C19.6829 12.0825 19.8417 10.2312 19.9841 8.37997C19.9957 8.16502 20.0547 7.95531 20.157 7.7659C20.2593 7.57649 20.4023 7.4121 20.5757 7.28455L20.5758 7.28446C21.9121 6.17811 23.2485 5.07177 24.5301 3.8997C25.0703 3.41907 25.5129 2.83889 25.8337 2.19085C26.4142 0.898254 25.8446 9.17132e-06 24.4863 9.17132e-06C22.9699 -0.037461 21.4951 0.498454 20.3566 1.50073C15.9749 5.25437 11.5932 8.99341 7.21153 12.7178C6.89449 12.9538 6.51128 13.0841 6.11612 13.0903C4.85752 13.0996 3.59941 13.0374 2.34787 12.9041C1.93287 12.8304 1.50545 12.8781 1.11686 13.0413C0.728267 13.2045 0.395005 13.4763 0.157028 13.8242C0.513525 14.0356 0.870574 14.246 1.22743 14.4562C2.46054 15.1826 3.69135 15.9077 4.88923 16.6723C5.24832 16.9047 5.65945 17.0443 6.08578 17.0787C6.51211 17.1132 6.94031 17.0413 7.33202 16.8695C9.82318 15.9171 12.1234 14.5258 14.1236 12.7617L15.0219 12.0277C15.2731 13.6092 15.5178 15.1619 15.7627 16.7167ZM5.17809 6.3892C4.99241 6.56894 4.80428 6.75106 4.60434 6.92306C4.66653 6.97359 4.71631 7.01998 4.75955 7.06028C4.83816 7.13354 4.89516 7.18666 4.96583 7.20786C6.48847 7.71176 8.02207 8.2047 9.55566 8.68668C9.63498 8.70327 9.71688 8.70306 9.79612 8.68608C9.87536 8.6691 9.95018 8.63572 10.0157 8.58809C10.2676 8.3794 10.519 8.17229 10.771 7.96456C11.6701 7.22368 12.5786 6.47505 13.554 5.61951L12.9953 5.54283C12.4699 5.50625 11.9525 5.47976 11.4407 5.45356C10.2669 5.39347 9.12255 5.33489 7.97825 5.15943C6.6576 4.95693 5.93844 5.65312 5.17809 6.3892Z" fill="#47585B"/>
</svg>
